<svg t="1598545116846" class="icon" viewBox="0 0 1024 1024" version="1.1" xmlns="http://www.w3.org/2000/svg" p-id="2257"
  width="200" height="200">
  <path d="M448 128h512a64 64 0 0 1 64 64v320a64 64 0 0 1-64 64H448a64 64 0 0 1-64-64V192a64 64 0 0 1 64-64z"
    fill="#79b8ff" p-id="2258"></path>
  <path
    d="M64 64h408.448a64 64 0 0 1 57.216 35.392l92.672 185.216a64 64 0 0 0 57.216 35.392H960a64 64 0 0 1 64 64v512a64 64 0 0 1-64 64H64a64 64 0 0 1-64-64V128a64 64 0 0 1 64-64z"
    fill="#79b8ff" p-id="2259"></path>
</svg>
